{"title":"Avengers.Age.of.Ultron.2015.HDRip.x264-MenaceIISociety","uid":12256504,"size":1279195217,"categoryP":"video","categoryS":"movies","magnet":"?xt=urn:btih:62aaae9d0e14808abd48f4f4af728511ad67c54a&amp;dn=Avengers.Age.of.Ultron.2015.HDRip.x264-MenaceIISociety&amp;tr=udp%3A%2F%2Ftracker.openbittorrent.com%3A80&amp;tr=udp%3A%2F%2Fopen.demonii.com%3A1337&amp;tr=udp%3A%2F%2Ftracker.coppersurfer.tk%3A6969&amp;tr=udp%3A%2F%2Fexodus.desync.com%3A6969","seeders":1,"leechers":1,"uploader":"TvTeam","files":4,"time":1440100760,"description":"------------------------------------------------------------------------\n\n &lt;a href=&quot; https://www.torrenting.com&quot; rel=&quot;nofollow&quot; target=&quot;_NEW&quot;&gt; https://www.torrenting.com&lt;/a&gt;\n\nSign up is OPEN - for time being. Come and have fun\n\n.......................................................................................................................[center][img]http://i.imgur.com/ipey7ZV.jpg[/img]\n\nAvengers.Age.of.Ultron.2015.HDRip.x264-MenaceIISociety &lt;a href=&quot;\nhttp://www.imdb.com/title/tt2395427/&quot; rel=&quot;nofollow&quot; target=&quot;_NEW&quot;&gt;\nhttp://www.imdb.com/title/tt2395427/&lt;/a&gt;\n\nSource: 720p-EVO [THANKS] just adjusted some stuff [url]http://screenshotcomparison.com/comparison/139246/picture:1[/url]\n\nGeneral\nComplete name                            : Avengers.Age.of.Ultron.2015.HDRip.x264-MenaceIISociety.mp4\nFormat                                   : MPEG-4\nFormat profile                           : Base Media\nCodec ID                                 : isom\nFile size                                : 1.17 GiB\nDuration                                 : 2h 21mn\nOverall bit rate mode                    : Variable\nOverall bit rate                         : 1 186 Kbps\nEncoded date                             : UTC 2015-08-20 16:42:03\nTagged date                              : UTC 2015-08-20 16:42:03\n\nVideo\nID                                       : 1\nFormat                                   : AVC\nFormat/Info                              : Advanced Video Codec\nFormat profile                           : &lt;a class=&quot;__cf_email__&quot; href=&quot;/cdn-cgi/l/email-protection&quot; data-cfemail=&quot;327a5b555a727e061c03&quot;&gt;[email&amp;#160;protected]&lt;/a&gt;&lt;script data-cfhash='f9e31' type=&quot;text/javascript&quot;&gt;\n/* &lt;![CDATA[ */!function(){try{var t=&quot;currentScript&quot;in document?document.currentScript:function(){for(var t=document.getElementsByTagName(&quot;script&quot;),e=t.length;e--;)if(t[e].getAttribute(&quot;data-cfhash&quot;))return t[e]}();if(t&amp;&amp;t.previousSibling){var e,r,n,i,c=t.previousSibling,a=c.getAttribute(&quot;data-cfemail&quot;);if(a){for(e=&quot;&quot;,r=parseInt(a.substr(0,2),16),n=2;a.length-n;n+=2)i=parseInt(a.substr(n,2),16)^r,e+=String.fromCharCode(i);e=document.createTextNode(e),c.parentNode.replaceChild(e,c)}t.parentNode.removeChild(t);}}catch(u){}}()/* ]]&gt; */&lt;/script&gt;\nFormat settings, CABAC                   : Yes\nFormat settings, ReFrames                : 3 frames\nCodec ID                                 : avc1\nCodec ID/Info                            : Advanced Video Coding\nDuration                                 : 2h 21mn\nBit rate mode                            : Variable\nBit rate                                 : 846 Kbps\nMaximum bit rate                         : 40.0 Mbps\nWidth                                    : 720 pixels\nHeight                                   : 304 pixels\nDisplay aspect ratio                     : 2.35:1\nFrame rate mode                          : Constant\nFrame rate                               : 23.976 fps\nColor space                              : YUV\nChroma subsampling                       : 4:2:0\nBit depth                                : 8 bits\nScan type                                : Progressive\nBits/(Pixel*Frame)                       : 0.161\nStream size                              : 857 MiB (71%)\nWriting library                          : x264 core 148 r2579 73ae2d1\n\nAudio\nID                                       : 2\nFormat                                   : AAC\nFormat/Info                              : Advanced Audio Codec\nFormat profile                           : LC\nCodec ID                                 : 40\nDuration                                 : 2h 21mn\nBit rate mode                            : Variable\nBit rate                                 : 336 Kbps\nMaximum bit rate                         : 408 Kbps\nChannel(s)                               : 6 channels\nChannel positions                        : Front: L C R, Side: L R, LFE\nSampling rate                            : 48.0 KHz\nCompression mode                         : Lossy\nStream size                              : 340 MiB (28%)\nLanguage                                 : English\nEncoded date                             : UTC 2015-08-20 11:06:29\nTagged date                              : UTC 2015-08-20 16:44:38\n\n[img]http://s9.postimg.org/budx291gf/vlcsnap_2015_08_20_18h47m27s266.jpg[/img]\n[img]http://s9.postimg.org/l3g3cdacf/vlcsnap_2015_08_20_18h51m01s681.jpg[/img]\n[img]http://s9.postimg.org/m36e82pi7/vlcsnap_2015_08_20_18h53m01s339.jpg[/img]\n[img]http://s9.postimg.org/mjrluid9b/vlcsnap_2015_08_20_18h53m50s826.jpg[/img]\n[img]http://s9.postimg.org/ya5jbw61r/vlcsnap_2015_08_20_18h57m55s528.jpg[/img]\n[img]http://s9.postimg.org/51dk5zan3/vlcsnap_2015_08_20_18h59m06s017.jpg[/img]\n[img]http://s9.postimg.org/spt21976n/vlcsnap_2015_08_20_18h59m23s320.jpg[/img]\n[img]http://s9.postimg.org/ttd6d7rtr/vlcsnap_2015_08_20_19h00m02s289.jpg[/img] \n \n[img]http://s17.postimg.org/r1iiyw8yn/Untitled_1.png[/img][/center]","torrent":{"xt":"urn:btih:62aaae9d0e14808abd48f4f4af728511ad67c54a","amp;dn":"Avengers.Age.of.Ultron.2015.HDRip.x264-MenaceIISociety","amp;tr":["udp%3A%2F%2Ftracker.openbittorrent.com%3A80","udp%3A%2F%2Fopen.demonii.com%3A1337","udp%3A%2F%2Ftracker.coppersurfer.tk%3A6969","udp%3A%2F%2Fexodus.desync.com%3A6969"],"infoHash":"62aaae9d0e14808abd48f4f4af728511ad67c54a","infoHashBuffer":{"type":"Buffer","data":[98,170,174,157,14,20,128,138,189,72,244,244,175,114,133,17,173,103,197,74]},"announce":[],"urlList":[]}}